<mxfile host="app.diagrams.net" modified="2024-08-09T12:32:39.750Z" agent="Mozilla/5.0 (Windows NT 10.0; Win64; x64) AppleWebKit/537.36 (KHTML, like Gecko) Chrome/127.0.0.0 Safari/537.36" etag="s3pCkbd3GcCh-I_tOGzE" version="24.4.10" type="device">
  <diagram name="Page-1" id="Eqr05Fh77cB_UoSyoZyq">
    <mxGraphModel dx="989" dy="532" grid="1" gridSize="10" guides="1" tooltips="1" connect="1" arrows="1" fold="1" page="1" pageScale="1" pageWidth="827" pageHeight="1169" math="0" shadow="0">
      <root>
        <mxCell id="0" />
        <mxCell id="1" parent="0" />
        <mxCell id="ksEGWVBoUjTWEfH_d83e-7" value="" style="edgeStyle=orthogonalEdgeStyle;rounded=0;orthogonalLoop=1;jettySize=auto;html=1;" edge="1" parent="1" source="ksEGWVBoUjTWEfH_d83e-4" target="ksEGWVBoUjTWEfH_d83e-5">
          <mxGeometry relative="1" as="geometry" />
        </mxCell>
        <mxCell id="ksEGWVBoUjTWEfH_d83e-4" value="User" style="whiteSpace=wrap;html=1;align=center;fontStyle=0" vertex="1" parent="1">
          <mxGeometry x="120" y="250" width="100" height="40" as="geometry" />
        </mxCell>
        <mxCell id="ksEGWVBoUjTWEfH_d83e-5" value="Entity" style="shape=ext;margin=3;double=1;whiteSpace=wrap;html=1;align=center;" vertex="1" parent="1">
          <mxGeometry x="330" y="250" width="100" height="40" as="geometry" />
        </mxCell>
        <mxCell id="ksEGWVBoUjTWEfH_d83e-8" value="" style="edgeStyle=orthogonalEdgeStyle;rounded=0;orthogonalLoop=1;jettySize=auto;html=1;" edge="1" parent="1" source="ksEGWVBoUjTWEfH_d83e-6" target="ksEGWVBoUjTWEfH_d83e-5">
          <mxGeometry relative="1" as="geometry" />
        </mxCell>
        <mxCell id="ksEGWVBoUjTWEfH_d83e-6" value="Course" style="whiteSpace=wrap;html=1;align=center;" vertex="1" parent="1">
          <mxGeometry x="510" y="250" width="100" height="40" as="geometry" />
        </mxCell>
        <mxCell id="ksEGWVBoUjTWEfH_d83e-9" value="&lt;u&gt;ID&lt;/u&gt;" style="ellipse;whiteSpace=wrap;html=1;align=center;" vertex="1" parent="1">
          <mxGeometry x="100" y="190" width="70" height="40" as="geometry" />
        </mxCell>
        <mxCell id="ksEGWVBoUjTWEfH_d83e-11" value="" style="endArrow=none;html=1;rounded=0;" edge="1" parent="1" source="ksEGWVBoUjTWEfH_d83e-9" target="ksEGWVBoUjTWEfH_d83e-4">
          <mxGeometry width="50" height="50" relative="1" as="geometry">
            <mxPoint x="450" y="430" as="sourcePoint" />
            <mxPoint x="500" y="380" as="targetPoint" />
          </mxGeometry>
        </mxCell>
        <mxCell id="ksEGWVBoUjTWEfH_d83e-12" value="&lt;u&gt;ID&lt;/u&gt;" style="ellipse;whiteSpace=wrap;html=1;align=center;" vertex="1" parent="1">
          <mxGeometry x="660" y="220" width="60" height="30" as="geometry" />
        </mxCell>
        <mxCell id="ksEGWVBoUjTWEfH_d83e-13" value="" style="endArrow=none;html=1;rounded=0;" edge="1" parent="1" source="ksEGWVBoUjTWEfH_d83e-12" target="ksEGWVBoUjTWEfH_d83e-6">
          <mxGeometry width="50" height="50" relative="1" as="geometry">
            <mxPoint x="754" y="590" as="sourcePoint" />
            <mxPoint x="472" y="450" as="targetPoint" />
          </mxGeometry>
        </mxCell>
        <mxCell id="ksEGWVBoUjTWEfH_d83e-14" value="FirstName" style="ellipse;whiteSpace=wrap;html=1;align=center;" vertex="1" parent="1">
          <mxGeometry x="40" y="250" width="60" height="40" as="geometry" />
        </mxCell>
        <mxCell id="ksEGWVBoUjTWEfH_d83e-15" value="" style="endArrow=none;html=1;rounded=0;" edge="1" parent="1" source="ksEGWVBoUjTWEfH_d83e-14" target="ksEGWVBoUjTWEfH_d83e-4">
          <mxGeometry width="50" height="50" relative="1" as="geometry">
            <mxPoint x="480" y="480" as="sourcePoint" />
            <mxPoint x="198" y="340" as="targetPoint" />
          </mxGeometry>
        </mxCell>
        <mxCell id="ksEGWVBoUjTWEfH_d83e-16" value="LastName" style="ellipse;whiteSpace=wrap;html=1;align=center;" vertex="1" parent="1">
          <mxGeometry x="100" y="320" width="60" height="40" as="geometry" />
        </mxCell>
        <mxCell id="ksEGWVBoUjTWEfH_d83e-17" value="" style="endArrow=none;html=1;rounded=0;" edge="1" parent="1" source="ksEGWVBoUjTWEfH_d83e-16" target="ksEGWVBoUjTWEfH_d83e-4">
          <mxGeometry width="50" height="50" relative="1" as="geometry">
            <mxPoint x="580" y="490" as="sourcePoint" />
            <mxPoint x="270" y="300" as="targetPoint" />
          </mxGeometry>
        </mxCell>
        <mxCell id="ksEGWVBoUjTWEfH_d83e-18" value="Description" style="ellipse;whiteSpace=wrap;html=1;align=center;" vertex="1" parent="1">
          <mxGeometry x="639.5" y="290" width="70.5" height="30" as="geometry" />
        </mxCell>
        <mxCell id="ksEGWVBoUjTWEfH_d83e-19" value="" style="endArrow=none;html=1;rounded=0;" edge="1" parent="1" source="ksEGWVBoUjTWEfH_d83e-18" target="ksEGWVBoUjTWEfH_d83e-6">
          <mxGeometry width="50" height="50" relative="1" as="geometry">
            <mxPoint x="773.5" y="630" as="sourcePoint" />
            <mxPoint x="600.5" y="290" as="targetPoint" />
          </mxGeometry>
        </mxCell>
        <mxCell id="ksEGWVBoUjTWEfH_d83e-20" value="status" style="ellipse;whiteSpace=wrap;html=1;align=center;" vertex="1" parent="1">
          <mxGeometry x="350" y="330" width="60" height="30" as="geometry" />
        </mxCell>
        <mxCell id="ksEGWVBoUjTWEfH_d83e-21" value="" style="endArrow=none;html=1;rounded=0;" edge="1" parent="1" source="ksEGWVBoUjTWEfH_d83e-20" target="ksEGWVBoUjTWEfH_d83e-5">
          <mxGeometry width="50" height="50" relative="1" as="geometry">
            <mxPoint x="488" y="760" as="sourcePoint" />
            <mxPoint x="401.8888888888889" y="259.9999999999999" as="targetPoint" />
          </mxGeometry>
        </mxCell>
      </root>
    </mxGraphModel>
  </diagram>
</mxfile>
